<svg width="27" height="27" viewBox="0 0 27 27" fill="none" xmlns="http://www.w3.org/2000/svg">
<path d="M4.90006 18.8655L4.89772 19.0206L4.98364 19.1499C6.81386 21.9023 9.95056 23.72 13.5 23.72C17.0494 23.72 20.1861 21.9023 22.0164 19.1499L22.1023 19.0206L22.0999 18.8655C22.0871 18.0138 21.6494 17.2979 21.0366 16.7248C20.4259 16.1536 19.6076 15.6898 18.735 15.3252C16.9919 14.5969 14.9117 14.215 13.5 14.215C12.0817 14.215 10.0014 14.5968 8.25976 15.3253C7.38791 15.6899 6.57079 16.1538 5.96112 16.7251C5.34934 17.2984 4.91289 18.0142 4.90006 18.8655ZM0.5 13.5C0.5 6.32414 6.32414 0.5 13.5 0.5C20.6759 0.5 26.5 6.32414 26.5 13.5C26.5 20.6759 20.6759 26.5 13.5 26.5C6.32414 26.5 0.5 20.6759 0.5 13.5ZM18.05 8.1C18.05 5.58286 16.0171 3.55 13.5 3.55C10.9829 3.55 8.95 5.58286 8.95 8.1C8.95 10.6171 10.9829 12.65 13.5 12.65C16.0171 12.65 18.05 10.6171 18.05 8.1Z" fill="#E7FEBE" stroke="black"/>
</svg>
